<?xml version="1.0" encoding="UTF-8" standalone="no"?>
<!DOCTYPE svg PUBLIC "-//W3C//DTD SVG 1.1//EN"
 "http://www.w3.org/Graphics/SVG/1.1/DTD/svg11.dtd">
<!-- Generated by graphviz version 2.38.0 (20140413.2041)
 -->
<!-- Title: G Pages: 1 -->
<svg width="182pt" height="381pt"
 viewBox="0.00 0.00 182.07 381.25" xmlns="http://www.w3.org/2000/svg" xmlns:xlink="http://www.w3.org/1999/xlink">
<g id="graph0" class="graph" transform="scale(1 1) rotate(0) translate(4 377.248)">
<title>G</title>
<polygon fill="transparent" stroke="none" points="-4,4 -4,-377.248 178.066,-377.248 178.066,4 -4,4"/>
<!-- bought -->
<g id="node1" class="node"><title>bought</title>
<ellipse fill="none" stroke="black" cx="42.2252" cy="-296.648" rx="36" ry="36"/>
<text text-anchor="middle" x="42.2252" y="-293.497" font-family="Arial" font-size="14.00">bought</text>
</g>
<!-- online -->
<g id="node3" class="node"><title>online</title>
<ellipse fill="none" stroke="black" cx="42.2252" cy="-172.549" rx="36" ry="36"/>
<text text-anchor="middle" x="42.2252" y="-169.398" font-family="Arial" font-size="14.00">online</text>
</g>
<!-- bought&#45;&gt;online -->
<g id="edge2" class="edge"><title>bought&#45;&gt;online</title>
<path fill="none" stroke="black" d="M42.2252,-260.332C42.2252,-247.423 42.2252,-232.636 42.2252,-218.969"/>
<polygon fill="black" stroke="black" points="45.7253,-218.786 42.2252,-208.786 38.7253,-218.786 45.7253,-218.786"/>
<text text-anchor="middle" x="63.2457" y="-231.448" font-family="Arial" font-size="14.00">upload</text>
</g>
<!-- starting_state -->
<g id="node2" class="node"><title>starting_state</title>
<ellipse fill="black" stroke="black" cx="42.2252" cy="-371.448" rx="1.8" ry="1.8"/>
</g>
<!-- starting_state&#45;&gt;bought -->
<g id="edge1" class="edge"><title>starting_state&#45;&gt;bought</title>
<path fill="none" stroke="black" d="M42.2252,-369.63C42.2252,-366.623 42.2252,-355.698 42.2252,-343.237"/>
<polygon fill="black" stroke="black" points="45.7253,-343.035 42.2252,-333.035 38.7253,-343.035 45.7253,-343.035"/>
</g>
<!-- online&#45;&gt;online -->
<g id="edge3" class="edge"><title>online&#45;&gt;online</title>
<path fill="none" stroke="black" d="M76.5009,-184.171C87.5043,-184.052 96.2252,-180.178 96.2252,-172.549 96.2252,-167.543 92.4694,-164.153 86.7775,-162.381"/>
<polygon fill="black" stroke="black" points="86.8926,-158.862 76.5009,-160.927 85.9119,-165.793 86.8926,-158.862"/>
<text text-anchor="middle" x="135.146" y="-169.398" font-family="Arial" font-size="14.00">renegotiated</text>
</g>
<!-- disposed -->
<g id="node4" class="node"><title>disposed</title>
<ellipse fill="none" stroke="black" cx="42.2252" cy="-42.2252" rx="38.4302" ry="38.4302"/>
<ellipse fill="none" stroke="black" cx="42.2252" cy="-42.2252" rx="42.4516" ry="42.4516"/>
<text text-anchor="middle" x="42.2252" y="-39.0745" font-family="Arial" font-size="14.00">disposed</text>
</g>
<!-- online&#45;&gt;disposed -->
<g id="edge4" class="edge"><title>online&#45;&gt;disposed</title>
<path fill="none" stroke="black" d="M42.2252,-136.484C42.2252,-123.586 42.2252,-108.697 42.2252,-94.6562"/>
<polygon fill="black" stroke="black" points="45.7253,-94.6225 42.2252,-84.6225 38.7253,-94.6226 45.7253,-94.6225"/>
<text text-anchor="middle" x="66.3526" y="-107.349" font-family="Arial" font-size="14.00">dispose</text>
</g>
</g>
</svg>
