<?xml version="1.0" encoding="UTF-8" standalone="no"?>
<!DOCTYPE svg PUBLIC "-//W3C//DTD SVG 1.1//EN"
 "http://www.w3.org/Graphics/SVG/1.1/DTD/svg11.dtd">
<!-- Generated by graphviz version 2.38.0 (20140413.2041)
 -->
<!-- Title: G Pages: 1 -->
<svg width="128pt" height="245pt"
 viewBox="0.00 0.00 128.23 244.70" xmlns="http://www.w3.org/2000/svg" xmlns:xlink="http://www.w3.org/1999/xlink">
<g id="graph0" class="graph" transform="scale(1 1) rotate(0) translate(4 240.699)">
<title>G</title>
<polygon fill="transparent" stroke="none" points="-4,4 -4,-240.699 124.233,-240.699 124.233,4 -4,4"/>
<!-- in_catalog -->
<g id="node1" class="node"><title>in_catalog</title>
<ellipse fill="none" stroke="black" cx="44.4132" cy="-160.099" rx="42.2136" ry="36"/>
<text text-anchor="middle" x="44.4132" y="-156.948" font-family="Arial" font-size="14.00">in_catalog</text>
</g>
<!-- advertising -->
<g id="node3" class="node"><title>advertising</title>
<ellipse fill="none" stroke="black" cx="44.4132" cy="-36" rx="44.3265" ry="36"/>
<text text-anchor="middle" x="44.4132" y="-32.8493" font-family="Arial" font-size="14.00">advertising</text>
</g>
<!-- in_catalog&#45;&gt;advertising -->
<g id="edge2" class="edge"><title>in_catalog&#45;&gt;advertising</title>
<path fill="none" stroke="black" d="M18.9714,-130.949C13.591,-123.39 8.68036,-114.865 5.82722,-106.099 2.1397,-94.7685 5.37811,-83.1854 11.2733,-72.821"/>
<polygon fill="black" stroke="black" points="14.2141,-74.719 16.7565,-64.4337 8.35499,-70.8886 14.2141,-74.719"/>
<text text-anchor="middle" x="35.2061" y="-94.8986" font-family="Arial" font-size="14.00">start_ads</text>
</g>
<!-- starting_state -->
<g id="node2" class="node"><title>starting_state</title>
<ellipse fill="black" stroke="black" cx="44.4132" cy="-234.899" rx="1.8" ry="1.8"/>
</g>
<!-- starting_state&#45;&gt;in_catalog -->
<g id="edge1" class="edge"><title>starting_state&#45;&gt;in_catalog</title>
<path fill="none" stroke="black" d="M44.4132,-233.081C44.4132,-230.073 44.4132,-219.149 44.4132,-206.687"/>
<polygon fill="black" stroke="black" points="47.9133,-206.486 44.4132,-196.486 40.9133,-206.486 47.9133,-206.486"/>
</g>
<!-- advertising&#45;&gt;in_catalog -->
<g id="edge3" class="edge"><title>advertising&#45;&gt;in_catalog</title>
<path fill="none" stroke="black" d="M59.6887,-70.0951C63.2527,-81.4085 65.48,-94.2086 63.4132,-106.099 62.844,-109.373 62.0909,-112.712 61.2127,-116.042"/>
<polygon fill="black" stroke="black" points="57.7689,-115.342 58.2619,-125.926 64.4764,-117.345 57.7689,-115.342"/>
<text text-anchor="middle" x="91.8233" y="-94.8986" font-family="Arial" font-size="14.00">stop_ads</text>
</g>
</g>
</svg>
