<?xml version="1.0" encoding="UTF-8" standalone="no"?>
<!DOCTYPE svg PUBLIC "-//W3C//DTD SVG 1.1//EN"
 "http://www.w3.org/Graphics/SVG/1.1/DTD/svg11.dtd">
<!-- Generated by graphviz version 2.38.0 (20140413.2041)
 -->
<!-- Title: G Pages: 1 -->
<svg width="184pt" height="253pt"
 viewBox="0.00 0.00 183.84 252.70" xmlns="http://www.w3.org/2000/svg" xmlns:xlink="http://www.w3.org/1999/xlink">
<g id="graph0" class="graph" transform="scale(1 1) rotate(0) translate(4 248.699)">
<title>G</title>
<polygon fill="transparent" stroke="none" points="-4,4 -4,-248.699 179.841,-248.699 179.841,4 -4,4"/>
<!-- bought -->
<g id="node1" class="node"><title>bought</title>
<ellipse fill="none" stroke="black" cx="40" cy="-168.099" rx="36" ry="36"/>
<text text-anchor="middle" x="40" y="-164.948" font-family="Arial" font-size="14.00">bought</text>
</g>
<!-- online -->
<g id="node3" class="node"><title>online</title>
<ellipse fill="none" stroke="black" cx="40" cy="-40" rx="36" ry="36"/>
<ellipse fill="none" stroke="black" cx="40" cy="-40" rx="40" ry="40"/>
<text text-anchor="middle" x="40" y="-36.8493" font-family="Arial" font-size="14.00">online</text>
</g>
<!-- bought&#45;&gt;online -->
<g id="edge2" class="edge"><title>bought&#45;&gt;online</title>
<path fill="none" stroke="black" d="M40,-131.973C40,-119.197 40,-104.505 40,-90.7057"/>
<polygon fill="black" stroke="black" points="43.5001,-90.3743 40,-80.3743 36.5001,-90.3743 43.5001,-90.3743"/>
<text text-anchor="middle" x="61.0205" y="-102.899" font-family="Arial" font-size="14.00">upload</text>
</g>
<!-- starting_state -->
<g id="node2" class="node"><title>starting_state</title>
<ellipse fill="black" stroke="black" cx="40" cy="-242.899" rx="1.8" ry="1.8"/>
</g>
<!-- starting_state&#45;&gt;bought -->
<g id="edge1" class="edge"><title>starting_state&#45;&gt;bought</title>
<path fill="none" stroke="black" d="M40,-241.081C40,-238.073 40,-227.149 40,-214.687"/>
<polygon fill="black" stroke="black" points="43.5001,-214.486 40,-204.486 36.5001,-214.486 43.5001,-214.486"/>
</g>
<!-- online&#45;&gt;online -->
<g id="edge3" class="edge"><title>online&#45;&gt;online</title>
<path fill="none" stroke="black" d="M78.2096,-52.338C89.3617,-51.9115 98,-47.7988 98,-40 98,-34.7602 94.1005,-31.1843 88.1591,-29.2725"/>
<polygon fill="black" stroke="black" points="88.6403,-25.8049 78.2096,-27.662 87.5218,-32.715 88.6403,-25.8049"/>
<text text-anchor="middle" x="136.92" y="-36.8493" font-family="Arial" font-size="14.00">renegotiated</text>
</g>
</g>
</svg>
