<?xml version="1.0" encoding="UTF-8" standalone="no"?>
<!DOCTYPE svg PUBLIC "-//W3C//DTD SVG 1.1//EN"
 "http://www.w3.org/Graphics/SVG/1.1/DTD/svg11.dtd">
<!-- Generated by graphviz version 2.38.0 (20140413.2041)
 -->
<!-- Title: G Pages: 1 -->
<svg width="154pt" height="271pt"
 viewBox="0.00 0.00 154.49 271.19" xmlns="http://www.w3.org/2000/svg" xmlns:xlink="http://www.w3.org/1999/xlink">
<g id="graph0" class="graph" transform="scale(1 1) rotate(0) translate(4 267.186)">
<title>G</title>
<polygon fill="transparent" stroke="none" points="-4,4 -4,-267.186 150.492,-267.186 150.492,4 -4,4"/>
<!-- in_production -->
<g id="node1" class="node"><title>in_production</title>
<ellipse fill="none" stroke="black" cx="53.093" cy="-186.586" rx="53.1861" ry="36"/>
<text text-anchor="middle" x="53.093" y="-183.436" font-family="Arial" font-size="14.00">in_production</text>
</g>
<!-- in_theaters -->
<g id="node3" class="node"><title>in_theaters</title>
<ellipse fill="none" stroke="black" cx="53.093" cy="-49.2438" rx="45.4689" ry="45.4689"/>
<ellipse fill="none" stroke="black" cx="53.093" cy="-49.2438" rx="49.4888" ry="49.4888"/>
<text text-anchor="middle" x="53.093" y="-46.0931" font-family="Arial" font-size="14.00">in_theaters</text>
</g>
<!-- in_production&#45;&gt;in_theaters -->
<g id="edge2" class="edge"><title>in_production&#45;&gt;in_theaters</title>
<path fill="none" stroke="black" d="M53.093,-150.38C53.093,-137.649 53.093,-122.908 53.093,-108.718"/>
<polygon fill="black" stroke="black" points="56.5931,-108.519 53.093,-98.5189 49.5931,-108.519 56.5931,-108.519"/>
<text text-anchor="middle" x="99.7927" y="-121.386" font-family="Arial" font-size="14.00">finish_shooting</text>
</g>
<!-- starting_state -->
<g id="node2" class="node"><title>starting_state</title>
<ellipse fill="black" stroke="black" cx="53.093" cy="-261.386" rx="1.8" ry="1.8"/>
</g>
<!-- starting_state&#45;&gt;in_production -->
<g id="edge1" class="edge"><title>starting_state&#45;&gt;in_production</title>
<path fill="none" stroke="black" d="M53.093,-259.569C53.093,-256.561 53.093,-245.637 53.093,-233.175"/>
<polygon fill="black" stroke="black" points="56.5931,-232.973 53.093,-222.973 49.5931,-232.973 56.5931,-232.973"/>
</g>
</g>
</svg>
