<?xml version="1.0" encoding="UTF-8" standalone="no"?>
<!DOCTYPE svg PUBLIC "-//W3C//DTD SVG 1.1//EN"
 "http://www.w3.org/Graphics/SVG/1.1/DTD/svg11.dtd">
<!-- Generated by graphviz version 2.38.0 (20140413.2041)
 -->
<!-- Title: G Pages: 1 -->
<svg width="146pt" height="369pt"
 viewBox="0.00 0.00 145.92 368.80" xmlns="http://www.w3.org/2000/svg" xmlns:xlink="http://www.w3.org/1999/xlink">
<g id="graph0" class="graph" transform="scale(1 1) rotate(0) translate(4 364.797)">
<title>G</title>
<polygon fill="transparent" stroke="none" points="-4,4 -4,-364.797 141.922,-364.797 141.922,4 -4,4"/>
<!-- pending -->
<g id="node1" class="node"><title>pending</title>
<ellipse fill="none" stroke="black" cx="55.9911" cy="-284.197" rx="36" ry="36"/>
<text text-anchor="middle" x="55.9911" y="-281.047" font-family="Arial" font-size="14.00">pending</text>
</g>
<!-- in_catalog -->
<g id="node3" class="node"><title>in_catalog</title>
<ellipse fill="none" stroke="black" cx="55.9911" cy="-160.099" rx="42.2136" ry="36"/>
<text text-anchor="middle" x="55.9911" y="-156.948" font-family="Arial" font-size="14.00">in_catalog</text>
</g>
<!-- pending&#45;&gt;in_catalog -->
<g id="edge2" class="edge"><title>pending&#45;&gt;in_catalog</title>
<path fill="none" stroke="black" d="M55.9911,-247.881C55.9911,-234.973 55.9911,-220.185 55.9911,-206.518"/>
<polygon fill="black" stroke="black" points="59.4912,-206.335 55.9911,-196.335 52.4912,-206.335 59.4912,-206.335"/>
<text text-anchor="middle" x="86.3495" y="-218.997" font-family="Arial" font-size="14.00">cataloged</text>
</g>
<!-- starting_state -->
<g id="node2" class="node"><title>starting_state</title>
<ellipse fill="black" stroke="black" cx="55.9911" cy="-358.997" rx="1.8" ry="1.8"/>
</g>
<!-- starting_state&#45;&gt;pending -->
<g id="edge1" class="edge"><title>starting_state&#45;&gt;pending</title>
<path fill="none" stroke="black" d="M55.9911,-357.18C55.9911,-354.172 55.9911,-343.248 55.9911,-330.786"/>
<polygon fill="black" stroke="black" points="59.4912,-330.584 55.9911,-320.584 52.4912,-330.584 59.4912,-330.584"/>
</g>
<!-- on_homepage -->
<g id="node4" class="node"><title>on_homepage</title>
<ellipse fill="none" stroke="black" cx="55.9911" cy="-36" rx="55.9822" ry="36"/>
<text text-anchor="middle" x="55.9911" y="-32.8493" font-family="Arial" font-size="14.00">on_homepage</text>
</g>
<!-- in_catalog&#45;&gt;on_homepage -->
<g id="edge3" class="edge"><title>in_catalog&#45;&gt;on_homepage</title>
<path fill="none" stroke="black" d="M31.8138,-130.481C26.8181,-122.998 22.2761,-114.625 19.6327,-106.099 16.4994,-95.9924 18.6569,-85.6252 23.17,-76.0958"/>
<polygon fill="black" stroke="black" points="26.2904,-77.687 28.1231,-67.2518 20.183,-74.2665 26.2904,-77.687"/>
<text text-anchor="middle" x="45.6703" y="-94.8986" font-family="Arial" font-size="14.00">promote</text>
</g>
<!-- on_homepage&#45;&gt;in_catalog -->
<g id="edge4" class="edge"><title>on_homepage&#45;&gt;in_catalog</title>
<path fill="none" stroke="black" d="M67.2276,-71.489C68.7916,-77.5944 70.1498,-83.9379 70.9911,-90 72.1428,-98.2986 71.6143,-107.084 70.2195,-115.506"/>
<polygon fill="black" stroke="black" points="66.7418,-115.041 68.1434,-125.542 73.5967,-116.459 66.7418,-115.041"/>
<text text-anchor="middle" x="104.456" y="-94.8986" font-family="Arial" font-size="14.00">unpromote</text>
</g>
</g>
</svg>
