<?xml version="1.0" encoding="UTF-8" standalone="no"?>
<!DOCTYPE svg PUBLIC "-//W3C//DTD SVG 1.1//EN"
 "http://www.w3.org/Graphics/SVG/1.1/DTD/svg11.dtd">
<!-- Generated by graphviz version 2.38.0 (20140413.2041)
 -->
<!-- Title: G Pages: 1 -->
<svg width="262pt" height="381pt"
 viewBox="0.00 0.00 262.46 381.25" xmlns="http://www.w3.org/2000/svg" xmlns:xlink="http://www.w3.org/1999/xlink">
<g id="graph0" class="graph" transform="scale(1 1) rotate(0) translate(4 377.248)">
<title>G</title>
<polygon fill="transparent" stroke="none" points="-4,4 -4,-377.248 258.46,-377.248 258.46,4 -4,4"/>
<!-- pending -->
<g id="node1" class="node"><title>pending</title>
<ellipse fill="none" stroke="black" cx="203.991" cy="-296.648" rx="36" ry="36"/>
<text text-anchor="middle" x="203.991" y="-293.497" font-family="Arial" font-size="14.00">pending</text>
</g>
<!-- in_catalog -->
<g id="node3" class="node"><title>in_catalog</title>
<ellipse fill="none" stroke="black" cx="97.9911" cy="-172.549" rx="42.2136" ry="36"/>
<text text-anchor="middle" x="97.9911" y="-169.398" font-family="Arial" font-size="14.00">in_catalog</text>
</g>
<!-- pending&#45;&gt;in_catalog -->
<g id="edge2" class="edge"><title>pending&#45;&gt;in_catalog</title>
<path fill="none" stroke="black" d="M178.385,-271.197C169.547,-262.424 159.744,-252.309 151.274,-242.648 142.685,-232.851 133.853,-221.837 125.911,-211.53"/>
<polygon fill="black" stroke="black" points="128.599,-209.284 119.753,-203.453 123.032,-213.527 128.599,-209.284"/>
<text text-anchor="middle" x="182.349" y="-231.448" font-family="Arial" font-size="14.00">cataloged</text>
</g>
<!-- canceled -->
<g id="node4" class="node"><title>canceled</title>
<ellipse fill="none" stroke="black" cx="195.991" cy="-42.2252" rx="38.4302" ry="38.4302"/>
<ellipse fill="none" stroke="black" cx="195.991" cy="-42.2252" rx="42.4516" ry="42.4516"/>
<text text-anchor="middle" x="195.991" y="-39.0745" font-family="Arial" font-size="14.00">canceled</text>
</g>
<!-- pending&#45;&gt;canceled -->
<g id="edge3" class="edge"><title>pending&#45;&gt;canceled</title>
<path fill="none" stroke="black" d="M209.989,-260.951C210.823,-254.869 211.545,-248.587 211.991,-242.648 215.781,-192.146 210.063,-134.479 204.439,-94.1921"/>
<polygon fill="black" stroke="black" points="207.872,-93.4794 202.979,-84.0826 200.944,-94.4803 207.872,-93.4794"/>
<text text-anchor="middle" x="234.225" y="-169.398" font-family="Arial" font-size="14.00">cancel</text>
</g>
<!-- starting_state -->
<g id="node2" class="node"><title>starting_state</title>
<ellipse fill="black" stroke="black" cx="203.991" cy="-371.448" rx="1.8" ry="1.8"/>
</g>
<!-- starting_state&#45;&gt;pending -->
<g id="edge1" class="edge"><title>starting_state&#45;&gt;pending</title>
<path fill="none" stroke="black" d="M203.991,-369.63C203.991,-366.623 203.991,-355.698 203.991,-343.237"/>
<polygon fill="black" stroke="black" points="207.491,-343.035 203.991,-333.035 200.491,-343.035 207.491,-343.035"/>
</g>
<!-- in_catalog&#45;&gt;canceled -->
<g id="edge4" class="edge"><title>in_catalog&#45;&gt;canceled</title>
<path fill="none" stroke="black" d="M125.602,-145.029C133.526,-136.856 141.926,-127.614 148.991,-118.549 156.393,-109.051 163.655,-98.3346 170.172,-88.0286"/>
<polygon fill="black" stroke="black" points="173.163,-89.847 175.459,-79.5038 167.214,-86.158 173.163,-89.847"/>
<text text-anchor="middle" x="181.225" y="-107.349" font-family="Arial" font-size="14.00">cancel</text>
</g>
<!-- on_homepage -->
<g id="node5" class="node"><title>on_homepage</title>
<ellipse fill="none" stroke="black" cx="55.9911" cy="-42.2252" rx="55.9822" ry="36"/>
<text text-anchor="middle" x="55.9911" y="-39.0745" font-family="Arial" font-size="14.00">on_homepage</text>
</g>
<!-- in_catalog&#45;&gt;on_homepage -->
<g id="edge5" class="edge"><title>in_catalog&#45;&gt;on_homepage</title>
<path fill="none" stroke="black" d="M58.7019,-159.012C39.6988,-150.742 18.6604,-137.802 7.63269,-118.549 0.0296244,-105.275 5.42376,-91.0721 14.9439,-78.6174"/>
<polygon fill="black" stroke="black" points="17.8636,-80.5882 21.7006,-70.7126 12.5425,-76.04 17.8636,-80.5882"/>
<text text-anchor="middle" x="33.6703" y="-107.349" font-family="Arial" font-size="14.00">promote</text>
</g>
<!-- on_homepage&#45;&gt;in_catalog -->
<g id="edge6" class="edge"><title>on_homepage&#45;&gt;in_catalog</title>
<path fill="none" stroke="black" d="M67.3344,-77.8828C72.3506,-93.2088 78.3065,-111.406 83.6284,-127.666"/>
<polygon fill="black" stroke="black" points="80.4091,-129.082 86.8461,-137.498 87.0618,-126.905 80.4091,-129.082"/>
<text text-anchor="middle" x="113.456" y="-107.349" font-family="Arial" font-size="14.00">unpromote</text>
</g>
</g>
</svg>
