<?xml version="1.0" encoding="UTF-8" standalone="no"?>
<!DOCTYPE svg PUBLIC "-//W3C//DTD SVG 1.1//EN"
 "http://www.w3.org/Graphics/SVG/1.1/DTD/svg11.dtd">
<!-- Generated by graphviz version 2.38.0 (20140413.2041)
 -->
<!-- Title: G Pages: 1 -->
<svg width="190pt" height="253pt"
 viewBox="0.00 0.00 189.95 252.70" xmlns="http://www.w3.org/2000/svg" xmlns:xlink="http://www.w3.org/1999/xlink">
<g id="graph0" class="graph" transform="scale(1 1) rotate(0) translate(4 248.699)">
<title>G</title>
<polygon fill="transparent" stroke="none" points="-4,4 -4,-248.699 185.947,-248.699 185.947,4 -4,4"/>
<!-- designing -->
<g id="node1" class="node"><title>designing</title>
<ellipse fill="none" stroke="black" cx="40.2927" cy="-168.099" rx="40.0864" ry="36"/>
<text text-anchor="middle" x="40.2927" y="-164.948" font-family="Arial" font-size="14.00">designing</text>
</g>
<!-- failed -->
<g id="node3" class="node"><title>failed</title>
<ellipse fill="none" stroke="black" cx="40.2927" cy="-40" rx="36" ry="36"/>
<ellipse fill="none" stroke="black" cx="40.2927" cy="-40" rx="40" ry="40"/>
<text text-anchor="middle" x="40.2927" y="-36.8493" font-family="Arial" font-size="14.00">failed</text>
</g>
<!-- designing&#45;&gt;failed -->
<g id="edge2" class="edge"><title>designing&#45;&gt;failed</title>
<path fill="none" stroke="black" d="M40.2927,-131.973C40.2927,-119.197 40.2927,-104.505 40.2927,-90.7057"/>
<polygon fill="black" stroke="black" points="43.7928,-90.3743 40.2927,-80.3743 36.7928,-90.3743 43.7928,-90.3743"/>
<text text-anchor="middle" x="111.12" y="-102.899" font-family="Arial" font-size="14.00">listen_to_lightning_talk</text>
</g>
<!-- starting_state -->
<g id="node2" class="node"><title>starting_state</title>
<ellipse fill="black" stroke="black" cx="40.2927" cy="-242.899" rx="1.8" ry="1.8"/>
</g>
<!-- starting_state&#45;&gt;designing -->
<g id="edge1" class="edge"><title>starting_state&#45;&gt;designing</title>
<path fill="none" stroke="black" d="M40.2927,-241.081C40.2927,-238.073 40.2927,-227.149 40.2927,-214.687"/>
<polygon fill="black" stroke="black" points="43.7928,-214.486 40.2927,-204.486 36.7928,-214.486 43.7928,-214.486"/>
</g>
</g>
</svg>
